<mxfile host="app.diagrams.net" agent="Mozilla/5.0 (X11; Linux x86_64; rv:131.0) Gecko/20100101 Firefox/131.0" version="24.8.6">
  <diagram name="Page-1" id="aCUoTUS-z-20jltxeiBX">
    <mxGraphModel dx="7520" dy="2530" grid="0" gridSize="10" guides="0" tooltips="1" connect="1" arrows="1" fold="1" page="0" pageScale="1" pageWidth="850" pageHeight="1100" math="0" shadow="0">
      <root>
        <mxCell id="0" />
        <mxCell id="1" parent="0" />
        <mxCell id="vLmUpz1jAhk_XsVfe2ap-39" value="&amp;nbsp;" style="text;whiteSpace=wrap;html=1;" parent="1" vertex="1">
          <mxGeometry x="40" y="10" width="40" height="40" as="geometry" />
        </mxCell>
        <mxCell id="GkCeSSy5X3w6YveUIObA-71" value="&amp;nbsp;" style="text;whiteSpace=wrap;html=1;" parent="1" vertex="1">
          <mxGeometry x="650" y="10" width="40" height="40" as="geometry" />
        </mxCell>
        <mxCell id="jYMbn7naV9_ToD4y-ylr-1" value="" style="group" vertex="1" connectable="0" parent="1">
          <mxGeometry x="-4298" y="-84" width="2755" height="1564" as="geometry" />
        </mxCell>
        <mxCell id="_Yxs-3POZub3MSI0yGSq-4" value="" style="whiteSpace=wrap;html=1;strokeWidth=5;fillColor=#d6d6d6;container=0;" parent="jYMbn7naV9_ToD4y-ylr-1" vertex="1">
          <mxGeometry width="2755" height="1564" as="geometry" />
        </mxCell>
        <mxCell id="GkCeSSy5X3w6YveUIObA-11" style="edgeStyle=orthogonalEdgeStyle;rounded=0;orthogonalLoop=1;jettySize=auto;html=1;entryX=0;entryY=0.5;entryDx=0;entryDy=0;strokeWidth=5;" parent="jYMbn7naV9_ToD4y-ylr-1" source="GkCeSSy5X3w6YveUIObA-8" target="GkCeSSy5X3w6YveUIObA-9" edge="1">
          <mxGeometry relative="1" as="geometry" />
        </mxCell>
        <mxCell id="GkCeSSy5X3w6YveUIObA-12" value="&lt;font style=&quot;font-size: 28px;&quot;&gt;Usuário Não Registrado&lt;br&gt;&lt;/font&gt;" style="edgeLabel;html=1;align=center;verticalAlign=middle;resizable=0;points=[];labelBackgroundColor=#d6d6d6;container=0;" parent="GkCeSSy5X3w6YveUIObA-11" vertex="1" connectable="0">
          <mxGeometry x="0.0207" y="2" relative="1" as="geometry">
            <mxPoint as="offset" />
          </mxGeometry>
        </mxCell>
        <mxCell id="GkCeSSy5X3w6YveUIObA-19" style="edgeStyle=orthogonalEdgeStyle;rounded=0;orthogonalLoop=1;jettySize=auto;html=1;entryX=0;entryY=0;entryDx=0;entryDy=0;strokeWidth=5;" parent="jYMbn7naV9_ToD4y-ylr-1" source="GkCeSSy5X3w6YveUIObA-8" target="GkCeSSy5X3w6YveUIObA-16" edge="1">
          <mxGeometry relative="1" as="geometry">
            <mxPoint x="1258" y="464" as="targetPoint" />
            <Array as="points">
              <mxPoint x="738" y="404" />
              <mxPoint x="1268" y="404" />
            </Array>
          </mxGeometry>
        </mxCell>
        <mxCell id="GkCeSSy5X3w6YveUIObA-20" value="&lt;font style=&quot;font-size: 28px;&quot;&gt;Usuário Existente&lt;/font&gt;" style="edgeLabel;html=1;align=center;verticalAlign=middle;resizable=0;points=[];labelBackgroundColor=#d6d6d6;container=0;" parent="GkCeSSy5X3w6YveUIObA-19" vertex="1" connectable="0">
          <mxGeometry x="-0.7801" relative="1" as="geometry">
            <mxPoint as="offset" />
          </mxGeometry>
        </mxCell>
        <mxCell id="GkCeSSy5X3w6YveUIObA-8" value="&lt;font style=&quot;font-size: 32px;&quot;&gt;Usuário&lt;/font&gt;" style="html=1;dashed=0;whiteSpace=wrap;strokeWidth=3;fillColor=#cce5ff;strokeColor=#36393d;container=0;" parent="jYMbn7naV9_ToD4y-ylr-1" vertex="1">
          <mxGeometry x="618" y="164" width="260" height="80" as="geometry" />
        </mxCell>
        <mxCell id="GkCeSSy5X3w6YveUIObA-13" style="edgeStyle=orthogonalEdgeStyle;rounded=0;orthogonalLoop=1;jettySize=auto;html=1;entryX=0;entryY=0.5;entryDx=0;entryDy=0;strokeWidth=5;" parent="jYMbn7naV9_ToD4y-ylr-1" source="GkCeSSy5X3w6YveUIObA-9" target="GkCeSSy5X3w6YveUIObA-10" edge="1">
          <mxGeometry relative="1" as="geometry" />
        </mxCell>
        <mxCell id="GkCeSSy5X3w6YveUIObA-14" value="&lt;font style=&quot;font-size: 28px;&quot;&gt;Armazenamento de Dados&lt;/font&gt;" style="edgeLabel;html=1;align=center;verticalAlign=middle;resizable=0;points=[];labelBackgroundColor=#d6d6d6;container=0;" parent="GkCeSSy5X3w6YveUIObA-13" vertex="1" connectable="0">
          <mxGeometry x="-0.0021" relative="1" as="geometry">
            <mxPoint as="offset" />
          </mxGeometry>
        </mxCell>
        <mxCell id="GkCeSSy5X3w6YveUIObA-105" style="edgeStyle=orthogonalEdgeStyle;rounded=0;orthogonalLoop=1;jettySize=auto;html=1;entryX=0.5;entryY=0;entryDx=0;entryDy=0;strokeWidth=5;" parent="jYMbn7naV9_ToD4y-ylr-1" source="GkCeSSy5X3w6YveUIObA-9" target="GkCeSSy5X3w6YveUIObA-16" edge="1">
          <mxGeometry relative="1" as="geometry" />
        </mxCell>
        <mxCell id="GkCeSSy5X3w6YveUIObA-106" value="&lt;font style=&quot;font-size: 28px;&quot;&gt;Redirecionamento&lt;/font&gt;" style="edgeLabel;html=1;align=center;verticalAlign=middle;resizable=0;points=[];labelBackgroundColor=#d6d6d6;container=0;" parent="GkCeSSy5X3w6YveUIObA-105" vertex="1" connectable="0">
          <mxGeometry relative="1" as="geometry">
            <mxPoint y="-15" as="offset" />
          </mxGeometry>
        </mxCell>
        <mxCell id="GkCeSSy5X3w6YveUIObA-9" value="&lt;font style=&quot;font-size: 32px;&quot;&gt;Registro&lt;/font&gt;" style="ellipse;whiteSpace=wrap;html=1;aspect=fixed;strokeWidth=3;fillColor=#ffff88;strokeColor=#36393d;container=0;" parent="jYMbn7naV9_ToD4y-ylr-1" vertex="1">
          <mxGeometry x="1268" y="104" width="200" height="200" as="geometry" />
        </mxCell>
        <mxCell id="GkCeSSy5X3w6YveUIObA-23" style="edgeStyle=orthogonalEdgeStyle;rounded=0;orthogonalLoop=1;jettySize=auto;html=1;strokeWidth=5;entryX=1;entryY=0;entryDx=0;entryDy=0;" parent="jYMbn7naV9_ToD4y-ylr-1" source="GkCeSSy5X3w6YveUIObA-10" target="GkCeSSy5X3w6YveUIObA-16" edge="1">
          <mxGeometry relative="1" as="geometry">
            <mxPoint x="1508" y="424" as="targetPoint" />
            <Array as="points">
              <mxPoint x="1978" y="403" />
            </Array>
          </mxGeometry>
        </mxCell>
        <mxCell id="GkCeSSy5X3w6YveUIObA-25" value="&lt;font style=&quot;font-size: 28px;&quot;&gt;Recebendo Informações&lt;/font&gt;" style="edgeLabel;html=1;align=center;verticalAlign=middle;resizable=0;points=[];labelBackgroundColor=#d6d6d6;container=0;" parent="GkCeSSy5X3w6YveUIObA-23" vertex="1" connectable="0">
          <mxGeometry x="0.2918" relative="1" as="geometry">
            <mxPoint x="31" y="1" as="offset" />
          </mxGeometry>
        </mxCell>
        <mxCell id="GkCeSSy5X3w6YveUIObA-10" value="&lt;font style=&quot;font-size: 32px;&quot;&gt;Banco de Dados&lt;br&gt;&lt;/font&gt;" style="html=1;dashed=0;whiteSpace=wrap;shape=partialRectangle;right=0;strokeWidth=3;fillColor=#ffff88;strokeColor=#36393d;container=0;" parent="jYMbn7naV9_ToD4y-ylr-1" vertex="1">
          <mxGeometry x="1868" y="169" width="300" height="70" as="geometry" />
        </mxCell>
        <mxCell id="GkCeSSy5X3w6YveUIObA-21" style="edgeStyle=orthogonalEdgeStyle;rounded=0;orthogonalLoop=1;jettySize=auto;html=1;entryX=0.598;entryY=0.991;entryDx=0;entryDy=0;entryPerimeter=0;strokeWidth=5;exitX=0.952;exitY=0.296;exitDx=0;exitDy=0;exitPerimeter=0;" parent="jYMbn7naV9_ToD4y-ylr-1" source="GkCeSSy5X3w6YveUIObA-16" target="GkCeSSy5X3w6YveUIObA-10" edge="1">
          <mxGeometry relative="1" as="geometry">
            <mxPoint x="1938" y="244" as="targetPoint" />
          </mxGeometry>
        </mxCell>
        <mxCell id="GkCeSSy5X3w6YveUIObA-22" value="&lt;font style=&quot;font-size: 28px;&quot;&gt;Recuperação de Informações&lt;br&gt;&lt;/font&gt;" style="edgeLabel;html=1;align=center;verticalAlign=middle;resizable=0;points=[];labelBackgroundColor=#d6d6d6;container=0;" parent="GkCeSSy5X3w6YveUIObA-21" vertex="1" connectable="0">
          <mxGeometry x="-0.4022" y="-1" relative="1" as="geometry">
            <mxPoint x="35" as="offset" />
          </mxGeometry>
        </mxCell>
        <mxCell id="GkCeSSy5X3w6YveUIObA-16" value="&lt;font style=&quot;font-size: 32px;&quot;&gt;Login&lt;br&gt;&lt;/font&gt;" style="ellipse;whiteSpace=wrap;html=1;aspect=fixed;strokeWidth=3;fillColor=#ffff88;strokeColor=#36393d;container=0;" parent="jYMbn7naV9_ToD4y-ylr-1" vertex="1">
          <mxGeometry x="1268" y="374" width="200" height="200" as="geometry" />
        </mxCell>
        <mxCell id="GkCeSSy5X3w6YveUIObA-117" style="edgeStyle=orthogonalEdgeStyle;rounded=0;orthogonalLoop=1;jettySize=auto;html=1;strokeWidth=5;" parent="jYMbn7naV9_ToD4y-ylr-1" source="GkCeSSy5X3w6YveUIObA-26" target="GkCeSSy5X3w6YveUIObA-116" edge="1">
          <mxGeometry relative="1" as="geometry" />
        </mxCell>
        <mxCell id="GkCeSSy5X3w6YveUIObA-26" value="&lt;font style=&quot;font-size: 32px;&quot;&gt;Criar Postagem&lt;br&gt;&lt;/font&gt;" style="ellipse;whiteSpace=wrap;html=1;aspect=fixed;strokeWidth=3;fillColor=#ffff88;strokeColor=#36393d;container=0;" parent="jYMbn7naV9_ToD4y-ylr-1" vertex="1">
          <mxGeometry x="1118" y="634" width="200" height="200" as="geometry" />
        </mxCell>
        <mxCell id="GkCeSSy5X3w6YveUIObA-123" style="edgeStyle=orthogonalEdgeStyle;rounded=0;orthogonalLoop=1;jettySize=auto;html=1;entryX=0.5;entryY=0;entryDx=0;entryDy=0;strokeWidth=5;" parent="jYMbn7naV9_ToD4y-ylr-1" source="GkCeSSy5X3w6YveUIObA-27" target="GkCeSSy5X3w6YveUIObA-29" edge="1">
          <mxGeometry relative="1" as="geometry" />
        </mxCell>
        <mxCell id="GkCeSSy5X3w6YveUIObA-27" value="&lt;font style=&quot;font-size: 32px;&quot;&gt;Visualizar Outras Postagens &lt;br&gt;&lt;/font&gt;" style="ellipse;whiteSpace=wrap;html=1;aspect=fixed;strokeWidth=3;fillColor=#ffff88;strokeColor=#36393d;container=0;" parent="jYMbn7naV9_ToD4y-ylr-1" vertex="1">
          <mxGeometry x="1578" y="634" width="200" height="200" as="geometry" />
        </mxCell>
        <mxCell id="GkCeSSy5X3w6YveUIObA-29" value="&lt;font style=&quot;font-size: 32px;&quot;&gt;Curtir Postagem&lt;br&gt;&lt;/font&gt;" style="ellipse;whiteSpace=wrap;html=1;aspect=fixed;strokeWidth=3;fillColor=#ffff88;strokeColor=#36393d;container=0;" parent="jYMbn7naV9_ToD4y-ylr-1" vertex="1">
          <mxGeometry x="1578" y="894" width="200" height="200" as="geometry" />
        </mxCell>
        <mxCell id="GkCeSSy5X3w6YveUIObA-45" style="edgeStyle=orthogonalEdgeStyle;rounded=0;orthogonalLoop=1;jettySize=auto;html=1;entryX=1;entryY=0.5;entryDx=0;entryDy=0;strokeWidth=5;" parent="jYMbn7naV9_ToD4y-ylr-1" source="GkCeSSy5X3w6YveUIObA-30" target="GkCeSSy5X3w6YveUIObA-31" edge="1">
          <mxGeometry relative="1" as="geometry" />
        </mxCell>
        <mxCell id="GkCeSSy5X3w6YveUIObA-46" value="&lt;font style=&quot;font-size: 28px;&quot;&gt;Remover Curtida&lt;br&gt;&lt;/font&gt;" style="edgeLabel;html=1;align=center;verticalAlign=middle;resizable=0;points=[];labelBackgroundColor=#d6d6d6;container=0;" parent="GkCeSSy5X3w6YveUIObA-45" vertex="1" connectable="0">
          <mxGeometry x="-0.0133" y="1" relative="1" as="geometry">
            <mxPoint x="13" y="-6" as="offset" />
          </mxGeometry>
        </mxCell>
        <mxCell id="GkCeSSy5X3w6YveUIObA-30" value="&lt;font style=&quot;font-size: 32px;&quot;&gt;Remover Curtida&lt;br&gt;&lt;/font&gt;" style="ellipse;whiteSpace=wrap;html=1;aspect=fixed;strokeWidth=3;fillColor=#ffff88;strokeColor=#36393d;container=0;" parent="jYMbn7naV9_ToD4y-ylr-1" vertex="1">
          <mxGeometry x="1928" y="1119" width="200" height="200" as="geometry" />
        </mxCell>
        <mxCell id="GkCeSSy5X3w6YveUIObA-31" value="&lt;font style=&quot;font-size: 32px;&quot;&gt;Banco de Dados&lt;br&gt;&lt;/font&gt;" style="html=1;dashed=0;whiteSpace=wrap;shape=partialRectangle;right=0;strokeWidth=3;fillColor=#ffff88;strokeColor=#36393d;container=0;" parent="jYMbn7naV9_ToD4y-ylr-1" vertex="1">
          <mxGeometry x="1358" y="1184" width="300" height="70" as="geometry" />
        </mxCell>
        <mxCell id="GkCeSSy5X3w6YveUIObA-37" value="" style="endArrow=classic;html=1;rounded=0;entryX=0.201;entryY=-0.024;entryDx=0;entryDy=0;entryPerimeter=0;exitX=0.98;exitY=0.655;exitDx=0;exitDy=0;exitPerimeter=0;strokeWidth=5;" parent="jYMbn7naV9_ToD4y-ylr-1" source="GkCeSSy5X3w6YveUIObA-26" target="GkCeSSy5X3w6YveUIObA-31" edge="1">
          <mxGeometry width="50" height="50" relative="1" as="geometry">
            <mxPoint x="1258" y="934" as="sourcePoint" />
            <mxPoint x="1308" y="884" as="targetPoint" />
            <Array as="points">
              <mxPoint x="1418" y="765" />
            </Array>
          </mxGeometry>
        </mxCell>
        <mxCell id="GkCeSSy5X3w6YveUIObA-40" value="&lt;font style=&quot;font-size: 28px;&quot;&gt;Armazenamento de Dados&lt;br&gt;&lt;/font&gt;" style="edgeLabel;html=1;align=center;verticalAlign=middle;resizable=0;points=[];labelBackgroundColor=#d6d6d6;container=0;" parent="GkCeSSy5X3w6YveUIObA-37" vertex="1" connectable="0">
          <mxGeometry x="-0.3407" y="1" relative="1" as="geometry">
            <mxPoint x="-11" y="81" as="offset" />
          </mxGeometry>
        </mxCell>
        <mxCell id="GkCeSSy5X3w6YveUIObA-42" value="" style="endArrow=none;html=1;rounded=0;entryX=0.997;entryY=0.552;entryDx=0;entryDy=0;exitX=0.5;exitY=0;exitDx=0;exitDy=0;endFill=0;startArrow=classic;startFill=1;strokeWidth=5;entryPerimeter=0;" parent="jYMbn7naV9_ToD4y-ylr-1" source="GkCeSSy5X3w6YveUIObA-27" target="GkCeSSy5X3w6YveUIObA-16" edge="1">
          <mxGeometry width="50" height="50" relative="1" as="geometry">
            <mxPoint x="1528" y="624" as="sourcePoint" />
            <mxPoint x="1578" y="574" as="targetPoint" />
            <Array as="points">
              <mxPoint x="1678" y="484" />
            </Array>
          </mxGeometry>
        </mxCell>
        <mxCell id="GkCeSSy5X3w6YveUIObA-67" style="edgeStyle=orthogonalEdgeStyle;rounded=0;orthogonalLoop=1;jettySize=auto;html=1;entryX=0;entryY=0.5;entryDx=0;entryDy=0;strokeWidth=5;" parent="jYMbn7naV9_ToD4y-ylr-1" source="GkCeSSy5X3w6YveUIObA-56" target="GkCeSSy5X3w6YveUIObA-59" edge="1">
          <mxGeometry relative="1" as="geometry" />
        </mxCell>
        <mxCell id="GkCeSSy5X3w6YveUIObA-56" value="&lt;font style=&quot;font-size: 32px;&quot;&gt;Acessar Outro Perfil&lt;br&gt;&lt;/font&gt;" style="ellipse;whiteSpace=wrap;html=1;aspect=fixed;strokeWidth=3;fillColor=#ffff88;strokeColor=#36393d;container=0;" parent="jYMbn7naV9_ToD4y-ylr-1" vertex="1">
          <mxGeometry x="1868" y="574" width="200" height="200" as="geometry" />
        </mxCell>
        <mxCell id="GkCeSSy5X3w6YveUIObA-57" value="" style="endArrow=none;html=1;rounded=0;startArrow=classic;startFill=1;entryX=0.999;entryY=0.459;entryDx=0;entryDy=0;entryPerimeter=0;exitX=0;exitY=0;exitDx=0;exitDy=0;strokeWidth=5;" parent="jYMbn7naV9_ToD4y-ylr-1" source="GkCeSSy5X3w6YveUIObA-56" target="GkCeSSy5X3w6YveUIObA-16" edge="1">
          <mxGeometry width="50" height="50" relative="1" as="geometry">
            <mxPoint x="1876" y="634" as="sourcePoint" />
            <mxPoint x="1468" y="474" as="targetPoint" />
            <Array as="points">
              <mxPoint x="1898" y="464" />
            </Array>
          </mxGeometry>
        </mxCell>
        <mxCell id="GkCeSSy5X3w6YveUIObA-58" value="" style="endArrow=classic;html=1;rounded=0;exitX=0.035;exitY=0.697;exitDx=0;exitDy=0;entryX=0.997;entryY=0.399;entryDx=0;entryDy=0;entryPerimeter=0;exitPerimeter=0;strokeWidth=5;" parent="jYMbn7naV9_ToD4y-ylr-1" source="GkCeSSy5X3w6YveUIObA-56" target="GkCeSSy5X3w6YveUIObA-27" edge="1">
          <mxGeometry width="50" height="50" relative="1" as="geometry">
            <mxPoint x="1788" y="704" as="sourcePoint" />
            <mxPoint x="1748" y="634" as="targetPoint" />
          </mxGeometry>
        </mxCell>
        <mxCell id="GkCeSSy5X3w6YveUIObA-62" style="edgeStyle=orthogonalEdgeStyle;rounded=0;orthogonalLoop=1;jettySize=auto;html=1;entryX=0.5;entryY=0;entryDx=0;entryDy=0;strokeWidth=5;" parent="jYMbn7naV9_ToD4y-ylr-1" source="GkCeSSy5X3w6YveUIObA-59" target="GkCeSSy5X3w6YveUIObA-61" edge="1">
          <mxGeometry relative="1" as="geometry" />
        </mxCell>
        <mxCell id="GkCeSSy5X3w6YveUIObA-63" value="&lt;font style=&quot;font-size: 28px;&quot;&gt;Armazenamento de Dados&lt;br&gt;&lt;/font&gt;" style="edgeLabel;html=1;align=center;verticalAlign=middle;resizable=0;points=[];labelBackgroundColor=#d6d6d6;container=0;" parent="GkCeSSy5X3w6YveUIObA-62" vertex="1" connectable="0">
          <mxGeometry x="-0.0981" y="2" relative="1" as="geometry">
            <mxPoint as="offset" />
          </mxGeometry>
        </mxCell>
        <mxCell id="GkCeSSy5X3w6YveUIObA-59" value="&lt;font style=&quot;font-size: 32px;&quot;&gt;Seguir Outro Perfil&lt;br&gt;&lt;/font&gt;" style="ellipse;whiteSpace=wrap;html=1;aspect=fixed;strokeWidth=3;fillColor=#ffff88;strokeColor=#36393d;container=0;" parent="jYMbn7naV9_ToD4y-ylr-1" vertex="1">
          <mxGeometry x="2208" y="574" width="200" height="200" as="geometry" />
        </mxCell>
        <mxCell id="GkCeSSy5X3w6YveUIObA-60" value="&lt;font style=&quot;font-size: 32px;&quot;&gt;Deixar de Seguir&lt;br&gt;&lt;/font&gt;" style="ellipse;whiteSpace=wrap;html=1;aspect=fixed;strokeWidth=3;fillColor=#ffff88;strokeColor=#36393d;container=0;" parent="jYMbn7naV9_ToD4y-ylr-1" vertex="1">
          <mxGeometry x="2508" y="794" width="200" height="200" as="geometry" />
        </mxCell>
        <mxCell id="GkCeSSy5X3w6YveUIObA-61" value="&lt;font style=&quot;font-size: 32px;&quot;&gt;Banco de Dados&lt;br&gt;&lt;/font&gt;" style="html=1;dashed=0;whiteSpace=wrap;shape=partialRectangle;right=0;strokeWidth=3;fillColor=#ffff88;strokeColor=#36393d;container=0;" parent="jYMbn7naV9_ToD4y-ylr-1" vertex="1">
          <mxGeometry x="2158" y="1034" width="300" height="70" as="geometry" />
        </mxCell>
        <mxCell id="GkCeSSy5X3w6YveUIObA-68" value="" style="endArrow=classic;html=1;rounded=0;exitX=1;exitY=0.5;exitDx=0;exitDy=0;entryX=0.5;entryY=0;entryDx=0;entryDy=0;strokeWidth=5;" parent="jYMbn7naV9_ToD4y-ylr-1" source="GkCeSSy5X3w6YveUIObA-59" target="GkCeSSy5X3w6YveUIObA-60" edge="1">
          <mxGeometry width="50" height="50" relative="1" as="geometry">
            <mxPoint x="2558" y="694" as="sourcePoint" />
            <mxPoint x="2608" y="644" as="targetPoint" />
            <Array as="points">
              <mxPoint x="2608" y="674" />
            </Array>
          </mxGeometry>
        </mxCell>
        <mxCell id="GkCeSSy5X3w6YveUIObA-69" value="" style="endArrow=classic;html=1;rounded=0;entryX=1;entryY=0.5;entryDx=0;entryDy=0;exitX=0.5;exitY=1;exitDx=0;exitDy=0;strokeWidth=5;" parent="jYMbn7naV9_ToD4y-ylr-1" source="GkCeSSy5X3w6YveUIObA-60" target="GkCeSSy5X3w6YveUIObA-61" edge="1">
          <mxGeometry width="50" height="50" relative="1" as="geometry">
            <mxPoint x="2568" y="1094" as="sourcePoint" />
            <mxPoint x="2618" y="1044" as="targetPoint" />
            <Array as="points">
              <mxPoint x="2608" y="1069" />
            </Array>
          </mxGeometry>
        </mxCell>
        <mxCell id="GkCeSSy5X3w6YveUIObA-70" value="&lt;font style=&quot;font-size: 28px;&quot;&gt;Remoção de Dados&lt;br&gt;&lt;/font&gt;" style="edgeLabel;html=1;align=center;verticalAlign=middle;resizable=0;points=[];labelBackgroundColor=#d6d6d6;container=0;" parent="GkCeSSy5X3w6YveUIObA-69" vertex="1" connectable="0">
          <mxGeometry x="-0.6356" y="1" relative="1" as="geometry">
            <mxPoint as="offset" />
          </mxGeometry>
        </mxCell>
        <mxCell id="GkCeSSy5X3w6YveUIObA-80" style="edgeStyle=orthogonalEdgeStyle;rounded=0;orthogonalLoop=1;jettySize=auto;html=1;entryX=0.5;entryY=0;entryDx=0;entryDy=0;strokeWidth=5;" parent="jYMbn7naV9_ToD4y-ylr-1" source="GkCeSSy5X3w6YveUIObA-72" target="GkCeSSy5X3w6YveUIObA-75" edge="1">
          <mxGeometry relative="1" as="geometry" />
        </mxCell>
        <mxCell id="GkCeSSy5X3w6YveUIObA-84" style="edgeStyle=orthogonalEdgeStyle;rounded=0;orthogonalLoop=1;jettySize=auto;html=1;entryX=1;entryY=0.5;entryDx=0;entryDy=0;strokeWidth=5;" parent="jYMbn7naV9_ToD4y-ylr-1" source="GkCeSSy5X3w6YveUIObA-72" target="GkCeSSy5X3w6YveUIObA-73" edge="1">
          <mxGeometry relative="1" as="geometry" />
        </mxCell>
        <mxCell id="GkCeSSy5X3w6YveUIObA-72" value="&lt;font style=&quot;font-size: 32px;&quot;&gt;Acessar o Meu Perfil&lt;/font&gt;" style="ellipse;whiteSpace=wrap;html=1;aspect=fixed;strokeWidth=3;fillColor=#ffff88;strokeColor=#36393d;container=0;" parent="jYMbn7naV9_ToD4y-ylr-1" vertex="1">
          <mxGeometry x="818" y="634" width="200" height="200" as="geometry" />
        </mxCell>
        <mxCell id="GkCeSSy5X3w6YveUIObA-89" style="edgeStyle=orthogonalEdgeStyle;rounded=0;orthogonalLoop=1;jettySize=auto;html=1;entryX=0.5;entryY=0;entryDx=0;entryDy=0;strokeWidth=5;" parent="jYMbn7naV9_ToD4y-ylr-1" source="GkCeSSy5X3w6YveUIObA-73" target="GkCeSSy5X3w6YveUIObA-88" edge="1">
          <mxGeometry relative="1" as="geometry" />
        </mxCell>
        <mxCell id="GkCeSSy5X3w6YveUIObA-73" value="&lt;font style=&quot;font-size: 32px;&quot;&gt;Acessar&lt;/font&gt;&lt;font style=&quot;font-size: 32px;&quot;&gt; as Próprias Postagens&lt;br&gt;&lt;/font&gt;" style="ellipse;whiteSpace=wrap;html=1;aspect=fixed;strokeWidth=3;fillColor=#ffff88;strokeColor=#36393d;container=0;" parent="jYMbn7naV9_ToD4y-ylr-1" vertex="1">
          <mxGeometry x="508" y="634" width="200" height="200" as="geometry" />
        </mxCell>
        <mxCell id="GkCeSSy5X3w6YveUIObA-74" value="&lt;font style=&quot;font-size: 32px;&quot;&gt;Banco de Dados&lt;br&gt;&lt;/font&gt;" style="html=1;dashed=0;whiteSpace=wrap;shape=partialRectangle;right=0;strokeWidth=3;fillColor=#ffff88;strokeColor=#36393d;container=0;" parent="jYMbn7naV9_ToD4y-ylr-1" vertex="1">
          <mxGeometry x="458" y="1384" width="300" height="70" as="geometry" />
        </mxCell>
        <mxCell id="GkCeSSy5X3w6YveUIObA-75" value="&lt;font style=&quot;font-size: 32px;&quot;&gt;Alterar Foto de Perfil&lt;br&gt;&lt;/font&gt;" style="ellipse;whiteSpace=wrap;html=1;aspect=fixed;strokeWidth=3;fillColor=#ffff88;strokeColor=#36393d;container=0;" parent="jYMbn7naV9_ToD4y-ylr-1" vertex="1">
          <mxGeometry x="818" y="954" width="200" height="200" as="geometry" />
        </mxCell>
        <mxCell id="GkCeSSy5X3w6YveUIObA-76" value="&lt;font style=&quot;font-size: 32px;&quot;&gt;Curtir Postagem&lt;br&gt;&lt;/font&gt;" style="ellipse;whiteSpace=wrap;html=1;aspect=fixed;strokeWidth=3;fillColor=#ffff88;strokeColor=#36393d;container=0;" parent="jYMbn7naV9_ToD4y-ylr-1" vertex="1">
          <mxGeometry x="88" y="634" width="200" height="200" as="geometry" />
        </mxCell>
        <mxCell id="GkCeSSy5X3w6YveUIObA-77" value="&lt;font style=&quot;font-size: 32px;&quot;&gt;Remover Curtida&lt;br&gt;&lt;/font&gt;" style="ellipse;whiteSpace=wrap;html=1;aspect=fixed;strokeWidth=3;fillColor=#ffff88;strokeColor=#36393d;container=0;" parent="jYMbn7naV9_ToD4y-ylr-1" vertex="1">
          <mxGeometry x="268" y="834" width="200" height="200" as="geometry" />
        </mxCell>
        <mxCell id="GkCeSSy5X3w6YveUIObA-78" value="" style="endArrow=classic;html=1;rounded=0;strokeWidth=5;" parent="jYMbn7naV9_ToD4y-ylr-1" target="GkCeSSy5X3w6YveUIObA-72" edge="1">
          <mxGeometry width="50" height="50" relative="1" as="geometry">
            <mxPoint x="1268" y="464" as="sourcePoint" />
            <mxPoint x="1108" y="564" as="targetPoint" />
          </mxGeometry>
        </mxCell>
        <mxCell id="GkCeSSy5X3w6YveUIObA-90" style="edgeStyle=orthogonalEdgeStyle;rounded=0;orthogonalLoop=1;jettySize=auto;html=1;entryX=0.5;entryY=0;entryDx=0;entryDy=0;strokeWidth=5;" parent="jYMbn7naV9_ToD4y-ylr-1" source="GkCeSSy5X3w6YveUIObA-88" target="GkCeSSy5X3w6YveUIObA-74" edge="1">
          <mxGeometry relative="1" as="geometry" />
        </mxCell>
        <mxCell id="GkCeSSy5X3w6YveUIObA-91" value="&lt;font style=&quot;font-size: 28px;&quot;&gt;Remover Postagem&lt;/font&gt;" style="edgeLabel;html=1;align=center;verticalAlign=middle;resizable=0;points=[];labelBackgroundColor=#d6d6d6;container=0;" parent="GkCeSSy5X3w6YveUIObA-90" vertex="1" connectable="0">
          <mxGeometry x="-0.0199" y="-2" relative="1" as="geometry">
            <mxPoint x="2" as="offset" />
          </mxGeometry>
        </mxCell>
        <mxCell id="GkCeSSy5X3w6YveUIObA-88" value="&lt;font style=&quot;font-size: 32px;&quot;&gt;Excluir Postagem&lt;br&gt;&lt;/font&gt;" style="ellipse;whiteSpace=wrap;html=1;aspect=fixed;strokeWidth=3;fillColor=#ffff88;strokeColor=#36393d;container=0;" parent="jYMbn7naV9_ToD4y-ylr-1" vertex="1">
          <mxGeometry x="508" y="954" width="200" height="200" as="geometry" />
        </mxCell>
        <mxCell id="GkCeSSy5X3w6YveUIObA-93" value="" style="endArrow=none;html=1;rounded=0;entryX=0.5;entryY=1;entryDx=0;entryDy=0;exitX=1;exitY=0.5;exitDx=0;exitDy=0;startArrow=classic;startFill=1;strokeWidth=5;" parent="jYMbn7naV9_ToD4y-ylr-1" source="GkCeSSy5X3w6YveUIObA-74" target="GkCeSSy5X3w6YveUIObA-75" edge="1">
          <mxGeometry width="50" height="50" relative="1" as="geometry">
            <mxPoint x="838" y="1424" as="sourcePoint" />
            <mxPoint x="888" y="1374" as="targetPoint" />
            <Array as="points">
              <mxPoint x="918" y="1419" />
            </Array>
          </mxGeometry>
        </mxCell>
        <mxCell id="GkCeSSy5X3w6YveUIObA-94" value="&lt;font style=&quot;font-size: 28px;&quot;&gt;Atualizar Foto de Perfil&lt;br&gt;&lt;/font&gt;" style="edgeLabel;html=1;align=center;verticalAlign=middle;resizable=0;points=[];labelBackgroundColor=#d6d6d6;container=0;" parent="GkCeSSy5X3w6YveUIObA-93" vertex="1" connectable="0">
          <mxGeometry x="0.4007" y="-1" relative="1" as="geometry">
            <mxPoint x="-31" y="13" as="offset" />
          </mxGeometry>
        </mxCell>
        <mxCell id="GkCeSSy5X3w6YveUIObA-95" value="" style="endArrow=none;html=1;rounded=0;endFill=0;startArrow=classic;startFill=1;strokeWidth=5;" parent="jYMbn7naV9_ToD4y-ylr-1" source="GkCeSSy5X3w6YveUIObA-76" target="GkCeSSy5X3w6YveUIObA-73" edge="1">
          <mxGeometry width="50" height="50" relative="1" as="geometry">
            <mxPoint x="398" y="844" as="sourcePoint" />
            <mxPoint x="448" y="794" as="targetPoint" />
          </mxGeometry>
        </mxCell>
        <mxCell id="GkCeSSy5X3w6YveUIObA-101" value="&lt;font style=&quot;font-size: 32px;&quot;&gt;Logout&lt;/font&gt;" style="ellipse;whiteSpace=wrap;html=1;aspect=fixed;strokeWidth=3;fillColor=#ffff88;strokeColor=#36393d;container=0;" parent="jYMbn7naV9_ToD4y-ylr-1" vertex="1">
          <mxGeometry x="508" y="344" width="200" height="200" as="geometry" />
        </mxCell>
        <mxCell id="GkCeSSy5X3w6YveUIObA-102" value="" style="endArrow=classic;html=1;rounded=0;entryX=1;entryY=0.6;entryDx=0;entryDy=0;entryPerimeter=0;strokeWidth=5;" parent="jYMbn7naV9_ToD4y-ylr-1" target="GkCeSSy5X3w6YveUIObA-101" edge="1">
          <mxGeometry width="50" height="50" relative="1" as="geometry">
            <mxPoint x="1268" y="464" as="sourcePoint" />
            <mxPoint x="828" y="474" as="targetPoint" />
          </mxGeometry>
        </mxCell>
        <mxCell id="GkCeSSy5X3w6YveUIObA-103" value="" style="endArrow=classic;html=1;rounded=0;exitX=1;exitY=0.45;exitDx=0;exitDy=0;exitPerimeter=0;entryX=0.033;entryY=0.301;entryDx=0;entryDy=0;entryPerimeter=0;strokeWidth=5;" parent="jYMbn7naV9_ToD4y-ylr-1" source="GkCeSSy5X3w6YveUIObA-101" target="GkCeSSy5X3w6YveUIObA-16" edge="1">
          <mxGeometry width="50" height="50" relative="1" as="geometry">
            <mxPoint x="738" y="434" as="sourcePoint" />
            <mxPoint x="1258" y="434" as="targetPoint" />
          </mxGeometry>
        </mxCell>
        <mxCell id="GkCeSSy5X3w6YveUIObA-104" value="&lt;font style=&quot;font-size: 28px;&quot;&gt;Remoção dos Cookies de Autenticação&lt;font style=&quot;font-size: 28px;&quot;&gt;&lt;br&gt;&lt;/font&gt;&lt;/font&gt;" style="edgeLabel;html=1;align=center;verticalAlign=middle;resizable=0;points=[];labelBackgroundColor=#d6d6d6;container=0;" parent="GkCeSSy5X3w6YveUIObA-103" vertex="1" connectable="0">
          <mxGeometry x="-0.0644" relative="1" as="geometry">
            <mxPoint as="offset" />
          </mxGeometry>
        </mxCell>
        <mxCell id="GkCeSSy5X3w6YveUIObA-109" value="" style="endArrow=classic;html=1;rounded=0;entryX=0.5;entryY=0;entryDx=0;entryDy=0;exitX=0.029;exitY=0.649;exitDx=0;exitDy=0;exitPerimeter=0;strokeWidth=5;" parent="jYMbn7naV9_ToD4y-ylr-1" source="GkCeSSy5X3w6YveUIObA-73" target="GkCeSSy5X3w6YveUIObA-77" edge="1">
          <mxGeometry width="50" height="50" relative="1" as="geometry">
            <mxPoint x="498" y="834" as="sourcePoint" />
            <mxPoint x="508" y="804" as="targetPoint" />
            <Array as="points">
              <mxPoint x="368" y="764" />
            </Array>
          </mxGeometry>
        </mxCell>
        <mxCell id="GkCeSSy5X3w6YveUIObA-110" value="" style="endArrow=none;html=1;rounded=0;entryX=0.5;entryY=1;entryDx=0;entryDy=0;exitX=0;exitY=0.5;exitDx=0;exitDy=0;endFill=0;startArrow=classic;startFill=1;strokeWidth=5;" parent="jYMbn7naV9_ToD4y-ylr-1" source="GkCeSSy5X3w6YveUIObA-74" target="GkCeSSy5X3w6YveUIObA-76" edge="1">
          <mxGeometry width="50" height="50" relative="1" as="geometry">
            <mxPoint x="188" y="1404" as="sourcePoint" />
            <mxPoint x="208" y="944" as="targetPoint" />
            <Array as="points">
              <mxPoint x="188" y="1419" />
            </Array>
          </mxGeometry>
        </mxCell>
        <mxCell id="GkCeSSy5X3w6YveUIObA-111" value="&lt;font style=&quot;font-size: 28px;&quot;&gt;Armazenamento de Dados&lt;br&gt;&lt;/font&gt;" style="edgeLabel;html=1;align=center;verticalAlign=middle;resizable=0;points=[];labelBackgroundColor=#d6d6d6;container=0;" parent="GkCeSSy5X3w6YveUIObA-110" vertex="1" connectable="0">
          <mxGeometry x="0.3013" relative="1" as="geometry">
            <mxPoint y="-1" as="offset" />
          </mxGeometry>
        </mxCell>
        <mxCell id="GkCeSSy5X3w6YveUIObA-112" value="" style="endArrow=none;html=1;rounded=0;entryX=0.5;entryY=1;entryDx=0;entryDy=0;exitX=0.25;exitY=0;exitDx=0;exitDy=0;endFill=0;startArrow=classic;startFill=1;strokeWidth=5;" parent="jYMbn7naV9_ToD4y-ylr-1" source="GkCeSSy5X3w6YveUIObA-74" target="GkCeSSy5X3w6YveUIObA-77" edge="1">
          <mxGeometry width="50" height="50" relative="1" as="geometry">
            <mxPoint x="398" y="1144" as="sourcePoint" />
            <mxPoint x="448" y="1094" as="targetPoint" />
            <Array as="points">
              <mxPoint x="533" y="1334" />
              <mxPoint x="368" y="1334" />
            </Array>
          </mxGeometry>
        </mxCell>
        <mxCell id="GkCeSSy5X3w6YveUIObA-113" value="&lt;font style=&quot;font-size: 28px;&quot;&gt;Remover Curtida&lt;font style=&quot;font-size: 28px;&quot;&gt;&lt;br&gt;&lt;/font&gt;&lt;/font&gt;" style="edgeLabel;html=1;align=center;verticalAlign=middle;resizable=0;points=[];labelBackgroundColor=#d6d6d6;container=0;" parent="GkCeSSy5X3w6YveUIObA-112" vertex="1" connectable="0">
          <mxGeometry x="0.052" relative="1" as="geometry">
            <mxPoint y="1" as="offset" />
          </mxGeometry>
        </mxCell>
        <mxCell id="GkCeSSy5X3w6YveUIObA-115" value="" style="endArrow=classic;html=1;rounded=0;entryX=0.5;entryY=0;entryDx=0;entryDy=0;strokeWidth=5;" parent="jYMbn7naV9_ToD4y-ylr-1" source="GkCeSSy5X3w6YveUIObA-16" target="GkCeSSy5X3w6YveUIObA-26" edge="1">
          <mxGeometry width="50" height="50" relative="1" as="geometry">
            <mxPoint x="1378" y="624" as="sourcePoint" />
            <mxPoint x="1428" y="574" as="targetPoint" />
          </mxGeometry>
        </mxCell>
        <mxCell id="GkCeSSy5X3w6YveUIObA-116" value="&lt;font style=&quot;font-size: 32px;&quot;&gt;Excluir Postagem&lt;br&gt;&lt;/font&gt;" style="ellipse;whiteSpace=wrap;html=1;aspect=fixed;strokeWidth=3;fillColor=#ffff88;strokeColor=#36393d;container=0;" parent="jYMbn7naV9_ToD4y-ylr-1" vertex="1">
          <mxGeometry x="1118" y="954" width="200" height="200" as="geometry" />
        </mxCell>
        <mxCell id="GkCeSSy5X3w6YveUIObA-119" value="" style="endArrow=classic;html=1;rounded=0;entryX=0;entryY=0.571;entryDx=0;entryDy=0;entryPerimeter=0;exitX=0.524;exitY=1.014;exitDx=0;exitDy=0;exitPerimeter=0;strokeWidth=5;" parent="jYMbn7naV9_ToD4y-ylr-1" source="GkCeSSy5X3w6YveUIObA-116" target="GkCeSSy5X3w6YveUIObA-31" edge="1">
          <mxGeometry width="50" height="50" relative="1" as="geometry">
            <mxPoint x="1178" y="1224" as="sourcePoint" />
            <mxPoint x="1228" y="1174" as="targetPoint" />
            <Array as="points">
              <mxPoint x="1223" y="1224" />
            </Array>
          </mxGeometry>
        </mxCell>
        <mxCell id="GkCeSSy5X3w6YveUIObA-120" value="&lt;font style=&quot;font-size: 28px;&quot;&gt;Remover Postagem&lt;br&gt;&lt;/font&gt;" style="edgeLabel;html=1;align=center;verticalAlign=middle;resizable=0;points=[];labelBackgroundColor=#d6d6d6;container=0;" parent="GkCeSSy5X3w6YveUIObA-119" vertex="1" connectable="0">
          <mxGeometry x="-0.6256" relative="1" as="geometry">
            <mxPoint y="-11" as="offset" />
          </mxGeometry>
        </mxCell>
        <mxCell id="GkCeSSy5X3w6YveUIObA-122" value="" style="endArrow=classic;html=1;rounded=0;exitX=1;exitY=0.45;exitDx=0;exitDy=0;exitPerimeter=0;entryX=0;entryY=0;entryDx=0;entryDy=0;strokeWidth=5;" parent="jYMbn7naV9_ToD4y-ylr-1" source="GkCeSSy5X3w6YveUIObA-26" target="GkCeSSy5X3w6YveUIObA-29" edge="1">
          <mxGeometry width="50" height="50" relative="1" as="geometry">
            <mxPoint x="1388" y="774" as="sourcePoint" />
            <mxPoint x="1438" y="724" as="targetPoint" />
            <Array as="points">
              <mxPoint x="1528" y="724" />
              <mxPoint x="1528" y="884" />
              <mxPoint x="1608" y="884" />
            </Array>
          </mxGeometry>
        </mxCell>
        <mxCell id="GkCeSSy5X3w6YveUIObA-124" style="edgeStyle=orthogonalEdgeStyle;rounded=0;orthogonalLoop=1;jettySize=auto;html=1;entryX=0.951;entryY=-0.028;entryDx=0;entryDy=0;entryPerimeter=0;strokeWidth=5;exitX=0.5;exitY=1;exitDx=0;exitDy=0;" parent="jYMbn7naV9_ToD4y-ylr-1" source="GkCeSSy5X3w6YveUIObA-29" target="GkCeSSy5X3w6YveUIObA-31" edge="1">
          <mxGeometry relative="1" as="geometry" />
        </mxCell>
        <mxCell id="GkCeSSy5X3w6YveUIObA-125" value="&lt;font style=&quot;font-size: 28px;&quot;&gt;Armazenamento de Dados&lt;br&gt;&lt;/font&gt;" style="edgeLabel;html=1;align=center;verticalAlign=middle;resizable=0;points=[];labelBackgroundColor=#d6d6d6;container=0;" parent="GkCeSSy5X3w6YveUIObA-124" vertex="1" connectable="0">
          <mxGeometry x="-0.0967" y="1" relative="1" as="geometry">
            <mxPoint x="10" y="-21" as="offset" />
          </mxGeometry>
        </mxCell>
        <mxCell id="GkCeSSy5X3w6YveUIObA-126" value="" style="endArrow=classic;html=1;rounded=0;entryX=0.202;entryY=0.094;entryDx=0;entryDy=0;entryPerimeter=0;strokeWidth=5;" parent="jYMbn7naV9_ToD4y-ylr-1" source="GkCeSSy5X3w6YveUIObA-29" target="GkCeSSy5X3w6YveUIObA-30" edge="1">
          <mxGeometry width="50" height="50" relative="1" as="geometry">
            <mxPoint x="1778" y="1094" as="sourcePoint" />
            <mxPoint x="1828" y="1044" as="targetPoint" />
            <Array as="points">
              <mxPoint x="1968" y="994" />
            </Array>
          </mxGeometry>
        </mxCell>
        <mxCell id="GkCeSSy5X3w6YveUIObA-128" value="" style="endArrow=classic;html=1;rounded=0;exitX=0.875;exitY=0.85;exitDx=0;exitDy=0;exitPerimeter=0;entryX=0.5;entryY=-0.007;entryDx=0;entryDy=0;entryPerimeter=0;strokeWidth=5;" parent="jYMbn7naV9_ToD4y-ylr-1" source="GkCeSSy5X3w6YveUIObA-27" target="GkCeSSy5X3w6YveUIObA-30" edge="1">
          <mxGeometry width="50" height="50" relative="1" as="geometry">
            <mxPoint x="1928" y="964" as="sourcePoint" />
            <mxPoint x="1968" y="1114" as="targetPoint" />
            <Array as="points">
              <mxPoint x="2028" y="804" />
            </Array>
          </mxGeometry>
        </mxCell>
        <mxCell id="GkCeSSy5X3w6YveUIObA-133" value="" style="endArrow=none;html=1;rounded=0;exitX=0;exitY=0.5;exitDx=0;exitDy=0;startArrow=classic;startFill=1;entryX=0.027;entryY=0.677;entryDx=0;entryDy=0;entryPerimeter=0;strokeWidth=5;" parent="jYMbn7naV9_ToD4y-ylr-1" source="GkCeSSy5X3w6YveUIObA-116" target="GkCeSSy5X3w6YveUIObA-16" edge="1">
          <mxGeometry width="50" height="50" relative="1" as="geometry">
            <mxPoint x="1068" y="1084" as="sourcePoint" />
            <mxPoint x="1258" y="514" as="targetPoint" />
            <Array as="points">
              <mxPoint x="1088" y="1054" />
              <mxPoint x="1088" y="674" />
              <mxPoint x="1188" y="584" />
              <mxPoint x="1268" y="514" />
            </Array>
          </mxGeometry>
        </mxCell>
        <mxCell id="GkCeSSy5X3w6YveUIObA-135" value="&lt;font style=&quot;font-size: 32px;&quot;&gt;Remover Curtida&lt;br&gt;&lt;/font&gt;" style="ellipse;whiteSpace=wrap;html=1;aspect=fixed;strokeWidth=3;fillColor=#ffff88;strokeColor=#36393d;container=0;" parent="jYMbn7naV9_ToD4y-ylr-1" vertex="1">
          <mxGeometry x="1118" y="1284" width="200" height="200" as="geometry" />
        </mxCell>
        <mxCell id="GkCeSSy5X3w6YveUIObA-138" value="" style="endArrow=none;html=1;rounded=0;entryX=0;entryY=0.55;entryDx=0;entryDy=0;entryPerimeter=0;exitX=0;exitY=0.55;exitDx=0;exitDy=0;exitPerimeter=0;startArrow=classic;startFill=1;strokeWidth=5;" parent="jYMbn7naV9_ToD4y-ylr-1" source="GkCeSSy5X3w6YveUIObA-135" target="GkCeSSy5X3w6YveUIObA-16" edge="1">
          <mxGeometry width="50" height="50" relative="1" as="geometry">
            <mxPoint x="1038" y="1394.4761904761908" as="sourcePoint" />
            <mxPoint x="1168" y="584" as="targetPoint" />
            <Array as="points">
              <mxPoint x="1038" y="1394" />
              <mxPoint x="1038" y="674" />
            </Array>
          </mxGeometry>
        </mxCell>
        <mxCell id="GkCeSSy5X3w6YveUIObA-139" value="" style="endArrow=classic;html=1;rounded=0;exitX=1;exitY=0.5;exitDx=0;exitDy=0;entryX=0.5;entryY=1;entryDx=0;entryDy=0;strokeWidth=5;" parent="jYMbn7naV9_ToD4y-ylr-1" source="GkCeSSy5X3w6YveUIObA-135" target="GkCeSSy5X3w6YveUIObA-31" edge="1">
          <mxGeometry width="50" height="50" relative="1" as="geometry">
            <mxPoint x="1358" y="1384" as="sourcePoint" />
            <mxPoint x="1408" y="1334" as="targetPoint" />
            <Array as="points">
              <mxPoint x="1508" y="1384" />
            </Array>
          </mxGeometry>
        </mxCell>
        <mxCell id="GkCeSSy5X3w6YveUIObA-140" value="&lt;font style=&quot;font-size: 28px;&quot;&gt;Remover Curtida&lt;br&gt;&lt;/font&gt;" style="edgeLabel;html=1;align=center;verticalAlign=middle;resizable=0;points=[];labelBackgroundColor=#d6d6d6;container=0;" parent="GkCeSSy5X3w6YveUIObA-139" vertex="1" connectable="0">
          <mxGeometry x="-0.2039" y="1" relative="1" as="geometry">
            <mxPoint x="63" y="-49" as="offset" />
          </mxGeometry>
        </mxCell>
        <mxCell id="GkCeSSy5X3w6YveUIObA-141" value="" style="endArrow=classic;html=1;rounded=0;exitX=0.5;exitY=0;exitDx=0;exitDy=0;entryX=0.75;entryY=0.061;entryDx=0;entryDy=0;entryPerimeter=0;endFill=1;strokeWidth=5;" parent="jYMbn7naV9_ToD4y-ylr-1" source="GkCeSSy5X3w6YveUIObA-56" target="GkCeSSy5X3w6YveUIObA-60" edge="1">
          <mxGeometry width="50" height="50" relative="1" as="geometry">
            <mxPoint x="2078" y="554" as="sourcePoint" />
            <mxPoint x="2658" y="754" as="targetPoint" />
            <Array as="points">
              <mxPoint x="1968" y="534" />
              <mxPoint x="2658" y="534" />
            </Array>
          </mxGeometry>
        </mxCell>
        <mxCell id="_Yxs-3POZub3MSI0yGSq-2" value="&lt;font style=&quot;font-size: 40px;&quot;&gt;&lt;span style=&quot;font-weight: normal;&quot;&gt;Diagrama de Fluxo de Dados Nível 1 -&lt;/span&gt; &lt;b&gt;Visão Geral do Sistema&lt;br&gt;&lt;/b&gt;&lt;/font&gt;" style="text;html=1;align=center;verticalAlign=middle;resizable=0;points=[];autosize=1;strokeColor=none;fillColor=none;fontStyle=1;container=0;" parent="jYMbn7naV9_ToD4y-ylr-1" vertex="1">
          <mxGeometry x="802.5" y="13" width="1150" height="60" as="geometry" />
        </mxCell>
        <mxCell id="_Yxs-3POZub3MSI0yGSq-3" value="&lt;font size=&quot;1&quot;&gt;&lt;b&gt;&lt;font style=&quot;font-size: 40px;&quot;&gt;OpenVoice &lt;/font&gt;&lt;/b&gt;&lt;font style=&quot;font-size: 40px;&quot;&gt;- 1.0.0&lt;/font&gt;&lt;b&gt;&lt;font style=&quot;font-size: 40px;&quot;&gt;&lt;br&gt;&lt;/font&gt;&lt;/b&gt;&lt;/font&gt;" style="text;html=1;align=center;verticalAlign=middle;resizable=0;points=[];autosize=1;strokeColor=none;fillColor=none;container=0;" parent="jYMbn7naV9_ToD4y-ylr-1" vertex="1">
          <mxGeometry x="1202.5" y="1504" width="350" height="60" as="geometry" />
        </mxCell>
      </root>
    </mxGraphModel>
  </diagram>
</mxfile>
